HIERARCHY
ROOT Hips
{
	OFFSET 0.00000 0.00000 0.00000
	CHANNELS 6 Xposition Yposition Zposition Zrotation Yrotation Xrotation 
	JOINT LHipJoint
	{
		OFFSET 0 0 0
		CHANNELS 3 Zrotation Yrotation Xrotation
		JOINT LeftUpLeg
		{
			OFFSET 3.13874 -1.57224 1.49786
			CHANNELS 3 Zrotation Yrotation Xrotation
			JOINT LeftLeg
			{
				OFFSET 2.10955 -5.79594 0.00000
				CHANNELS 3 Zrotation Yrotation Xrotation
				JOINT LeftFoot
				{
					OFFSET 2.41843 -6.64458 0.00000
					CHANNELS 3 Zrotation Yrotation Xrotation
					JOINT LeftToeBase
					{
						OFFSET 0.04713 -0.12948 1.66229
						CHANNELS 3 Zrotation Yrotation Xrotation
						End Site
						{
							OFFSET 0.00000 -0.00000 0.85167
						}
					}
				}
			}
		}
	}
	JOINT RHipJoint
	{
		OFFSET 0 0 0
		CHANNELS 3 Zrotation Yrotation Xrotation
		JOINT RightUpLeg
		{
			OFFSET -3.13988 -1.57224 1.49786
			CHANNELS 3 Zrotation Yrotation Xrotation
			JOINT RightLeg
			{
				OFFSET -2.15006 -5.90725 0.00000
				CHANNELS 3 Zrotation Yrotation Xrotation
				JOINT RightFoot
				{
					OFFSET -2.34496 -6.44273 0.00000
					CHANNELS 3 Zrotation Yrotation Xrotation
					JOINT RightToeBase
					{
						OFFSET -0.08699 -0.23900 1.55223
						CHANNELS 3 Zrotation Yrotation Xrotation
						End Site
						{
							OFFSET -0.00000 -0.00000 0.80281
						}
					}
				}
			}
		}
	}
	JOINT LowerBack
	{
		OFFSET 0 0 0
		CHANNELS 3 Zrotation Yrotation Xrotation
		JOINT Spine
		{
			OFFSET 0.01292 1.96517 -0.16495
			CHANNELS 3 Zrotation Yrotation Xrotation
			JOINT Spine1
			{
				OFFSET 0.02122 1.88666 0.19706
				CHANNELS 3 Zrotation Yrotation Xrotation
				JOINT Neck
				{
					OFFSET 0 0 0
					CHANNELS 3 Zrotation Yrotation Xrotation
					JOINT Neck1
					{
						OFFSET -0.01683 1.81591 0.07903
						CHANNELS 3 Zrotation Yrotation Xrotation
						JOINT Head
						{
							OFFSET 0.00815 1.74013 -0.47700
							CHANNELS 3 Zrotation Yrotation Xrotation
							End Site
							{
								OFFSET -0.00204 1.83225 -0.16933
							}
						}
					}
				}
				JOINT LeftShoulder
				{
					OFFSET 0 0 0
					CHANNELS 3 Zrotation Yrotation Xrotation
					JOINT LeftArm
					{
						OFFSET 3.38482 1.41533 0.19802
						CHANNELS 3 Zrotation Yrotation Xrotation
						JOINT LeftForeArm
						{
							OFFSET 4.32712 -0.00000 0.00000
							CHANNELS 3 Zrotation Yrotation Xrotation
							JOINT LeftHand
							{
								OFFSET 3.28587 -0.00000 -0.00000
								CHANNELS 3 Zrotation Yrotation Xrotation
								JOINT LeftFingerBase
								{
									OFFSET 0 0 0
									CHANNELS 3 Zrotation Yrotation Xrotation
									JOINT LeftHandIndex1
									{
										OFFSET 0.43316 -0.00000 -0.00000
										CHANNELS 3 Zrotation Yrotation Xrotation
										End Site
										{
											OFFSET 0.34922 -0.00000 -0.00000
										}
									}
								}
								JOINT LThumb
								{
									OFFSET 0 0 0
									CHANNELS 3 Zrotation Yrotation Xrotation
									End Site
									{
										OFFSET 0.35456 -0.00000 0.35456
									}
								}
							}
						}
					}
				}
				JOINT RightShoulder
				{
					OFFSET 0 0 0
					CHANNELS 3 Zrotation Yrotation Xrotation
					JOINT RightArm
					{
						OFFSET -3.09725 1.62858 -0.14144
						CHANNELS 3 Zrotation Yrotation Xrotation
						JOINT RightForeArm
						{
							OFFSET -4.29104 -0.00000 0.00000
							CHANNELS 3 Zrotation Yrotation Xrotation
							JOINT RightHand
							{
								OFFSET -3.22720 -0.00000 -0.00000
								CHANNELS 3 Zrotation Yrotation Xrotation
								JOINT RightFingerBase
								{
									OFFSET 0 0 0
									CHANNELS 3 Zrotation Yrotation Xrotation
									JOINT RightHandIndex1
									{
										OFFSET -0.54362 -0.00000 -0.00000
										CHANNELS 3 Zrotation Yrotation Xrotation
										End Site
										{
											OFFSET -0.43828 -0.00000 -0.00000
										}
									}
								}
								JOINT RThumb
								{
									OFFSET 0 0 0
									CHANNELS 3 Zrotation Yrotation Xrotation
									End Site
									{
										OFFSET -0.44497 -0.00000 0.44497
									}
								}
							}
						}
					}
				}
			}
		}
	}
}
MOTION
Frames: 13
Frame Time: .0083333
4.8342 20.5979 3.2130 -121.1150 -87.8086 141.8160 0.0000 0.0000 0.0000 -19.7649 -30.6658 -61.8202 11.9690 18.3775 65.8904 1.0343 -23.8962 -23.3139 1.1925 -6.9295 -19.5067 0.0000 0.0000 0.0000 32.3092 17.2895 0.5301 -0.0000 -0.0240 0.0658 0.8384 -17.0403 -12.7980 -0.1267 2.2945 -6.3202 -1.3972 1.5158 15.6036 -0.6049 1.5972 -7.0454 -0.3751 0.8023 -16.9453 -2.4257 -0.8192 -17.3760 1.9257 -3.5757 43.4612 0.4036 -2.1774 20.0104 0.0000 -0.0000 0.0000 -75.8341 12.0124 35.4569 41.7601 -49.0788 -19.7591 -0.0000 0.0000 -0.8567 34.8543 23.9612 15.7925 -7.1250 0.0000 -0.0000 6.3976 58.3042 2.0876 0.0000 -0.0000 0.0000 52.5222 -5.9653 38.5049 -50.2946 53.1136 -26.4096 0.0000 -0.0000 -15.0215 -23.3383 -15.6832 6.6524 7.1250 -0.0000 -0.0000 4.1451 -46.9404 -0.1988
4.6846 20.7968 3.2290 -117.1810 -87.5015 138.5610 0.0000 0.0000 0.0000 -19.7372 -29.9949 -60.4952 11.2348 18.0481 63.5418 0.9792 -23.8102 -22.9551 1.1668 -6.8571 -19.2926 0.0000 0.0000 0.0000 32.0493 17.0870 -0.2240 -0.0000 0.0301 -0.0827 1.1730 -19.2639 -12.0785 -0.0001 -0.0735 0.2018 -1.3223 1.5078 15.4263 -0.5553 1.6123 -7.0999 -0.3610 0.8048 -16.8980 -2.3965 -0.8275 -17.4208 2.1477 -3.7080 43.4504 0.4807 -2.1915 20.0301 -0.0000 -0.0000 0.0000 -75.6794 11.0938 35.6429 41.9048 -49.1588 -19.8685 -0.0000 0.0000 -0.6199 35.3925 24.1757 16.2230 -7.1250 0.0000 -0.0000 7.0118 58.6829 2.3530 -0.0000 -0.0000 0.0000 52.7120 -6.6181 38.1762 -50.6092 53.2383 -26.6614 0.0000 -0.0000 -15.3808 -23.7563 -15.7701 6.8214 7.1250 -0.0000 -0.0000 3.7663 -47.0922 -0.1947
4.5359 20.9970 3.2476 -114.4910 -87.0797 136.4900 0.0000 0.0000 0.0000 -19.6542 -29.1709 -59.1291 10.4914 17.6771 61.1185 0.8948 -23.7951 -22.4570 1.1021 -6.6706 -18.7432 0.0000 0.0000 0.0000 31.6977 15.9529 -1.7804 -0.0005 -0.1483 0.4074 1.5028 -21.2812 -11.3273 -0.1451 -2.4546 6.7638 -1.1533 1.5052 15.2708 -0.4796 1.6603 -7.1367 -0.3800 0.8140 -16.8403 -2.3531 -0.8024 -17.4879 2.3989 -3.8148 43.4773 0.5746 -2.1908 20.0825 -0.0000 0.0000 0.0000 -75.5963 10.2716 35.6225 42.0444 -49.2356 -19.9742 -0.0000 0.0000 -0.5200 35.7432 24.3796 16.5459 -7.1250 0.0000 -0.0000 7.4091 59.0041 2.5443 -0.0000 0.0000 0.0000 52.8108 -7.2931 38.0473 -50.8066 53.3157 -26.8197 0.0000 -0.0000 -15.3837 -23.9328 -15.8495 6.9113 7.1250 -0.0000 -0.0000 3.6142 -47.2027 -0.1967
4.3893 21.1921 3.2684 -113.3190 -86.5833 135.8440 0.0000 0.0000 0.0000 -19.5808 -28.2011 -57.7030 9.7531 17.2687 58.6600 0.7819 -23.8603 -21.8258 1.0015 -6.3684 -17.8572 0.0000 0.0000 0.0000 31.3219 13.8521 -4.1866 -0.0100 -0.6473 1.7789 1.8643 -23.3130 -9.6090 -0.2739 -3.3662 9.3000 -0.9316 1.5100 15.1578 -0.3924 1.7315 -7.1539 -0.4231 0.8290 -16.7842 -2.2787 -0.7167 -17.6389 2.6571 -3.8611 43.6210 0.6781 -2.1634 20.2378 0.0000 -0.0000 0.0000 -75.5526 9.5614 35.4449 42.2063 -49.3241 -20.0969 -0.0000 0.0000 -0.6106 35.8894 24.5015 16.7038 -7.1250 0.0000 -0.0000 7.5714 59.1804 2.6325 0.0000 -0.0000 0.0000 52.8278 -7.9627 38.0877 -50.8429 53.3299 -26.8488 0.0000 -0.0000 -15.0062 -23.8499 -15.9191 6.9138 7.1250 -0.0000 -0.0000 3.7065 -47.2654 -0.2075
4.2459 21.3764 3.2907 -113.5580 -86.0636 136.4920 0.0000 0.0000 0.0000 -19.5857 -27.1129 -56.1878 9.0313 16.8278 56.1984 0.6558 -23.9795 -21.1356 0.8860 -6.0001 -16.7848 0.0000 0.0000 0.0000 31.0168 11.1156 -7.3032 -0.0574 -1.5456 4.2513 2.1778 -25.2566 -6.1865 -0.1227 -2.2582 6.2199 -0.7073 1.5209 15.0956 -0.3114 1.8102 -7.1479 -0.4781 0.8468 -16.7317 -2.0715 -0.5708 -17.8583 2.7866 -3.8214 43.8571 0.7111 -2.0998 20.4670 0.0000 -0.0000 0.0000 -75.5173 8.9657 35.1651 42.3970 -49.4276 -20.2416 -0.0000 0.0000 -0.8547 35.9002 24.4861 16.7009 -7.1250 0.0000 -0.0000 7.5866 59.1657 2.6352 0.0000 -0.0000 0.0000 52.7919 -8.6101 38.2545 -50.6867 53.2687 -26.7235 0.0000 -0.0000 -14.2987 -23.5660 -15.9697 6.8432 7.1250 -0.0000 -0.0000 3.9865 -47.2791 -0.2245
4.1057 21.5454 3.3136 -115.0920 -85.5748 138.2880 0.0000 0.0000 0.0000 -19.7451 -25.9424 -54.5421 8.3323 16.3583 53.7509 0.5339 -24.1124 -20.4688 0.7752 -5.6216 -15.6905 0.0000 0.0000 0.0000 30.8115 8.3119 -10.8407 -0.1985 -2.8690 7.9143 2.1969 -26.4791 -1.1495 -0.0194 0.9000 -2.4736 -0.5349 1.5339 15.0886 -0.2572 1.8761 -7.1134 -0.5318 0.8627 -16.6800 -1.8360 -0.4111 -17.9735 2.8839 -3.7534 44.0313 0.7303 -2.0263 20.6204 0.0000 0.0000 0.0000 -75.4664 8.4712 34.8366 42.5813 -49.5270 -20.3817 -0.0000 0.0000 -1.1514 35.9102 24.3729 16.6382 -7.1250 0.0000 -0.0000 7.6135 59.0393 2.6215 0.0000 0.0000 0.0000 52.7287 -9.2220 38.5167 -50.3138 53.1213 -26.4249 0.0000 -0.0000 -13.3960 -23.2004 -15.9642 6.7232 7.1250 -0.0000 -0.0000 4.3325 -47.2211 -0.2379
3.9683 21.6959 3.3360 -117.8330 -85.1618 141.1280 0.0000 0.0000 0.0000 -20.1211 -24.7299 -52.7325 7.6601 15.8635 51.3289 0.4287 -24.2175 -19.8793 0.6850 -5.2914 -14.7414 0.0000 0.0000 0.0000 30.6336 5.9054 -14.5327 -0.5096 -4.5758 12.7026 1.7688 -26.4503 4.6417 -0.7280 5.4515 -15.2008 -0.4597 1.5434 15.1321 -0.2485 1.9088 -7.0456 -0.5738 0.8711 -16.6214 -1.5377 -0.2337 -17.9915 2.8952 -3.6392 44.1566 0.7049 -1.9375 20.7034 -0.0000 0.0000 0.0000 -75.3870 8.0434 34.4970 42.6942 -49.5875 -20.4676 -0.0000 0.0000 -1.3783 35.9878 24.2333 16.5982 -7.1250 0.0000 -0.0000 7.7256 58.9000 2.6346 -0.0000 0.0000 0.0000 52.6745 -9.7984 38.8271 -49.7209 52.8823 -25.9515 0.0000 -0.0000 -12.4478 -22.8957 -15.8731 6.5890 7.1250 -0.0000 -0.0000 4.6024 -47.0810 -0.2368
3.8331 21.8258 3.3570 -121.7100 -84.8505 144.9370 0.0000 0.0000 0.0000 -20.7544 -23.5101 -50.7549 7.0169 15.3461 48.9381 0.3437 -24.2602 -19.3710 0.6188 -5.0341 -14.0058 0.0000 0.0000 0.0000 30.3717 4.0922 -18.2099 -1.0677 -6.5691 18.4449 1.1163 -25.3601 9.5305 -2.0075 8.8816 -25.4256 -0.5113 1.5443 15.2164 -0.2970 1.8930 -6.9498 -0.5963 0.8671 -16.5570 -1.2242 -0.0639 -17.8777 2.8693 -3.5207 44.2169 0.6591 -1.8516 20.6984 0.0000 -0.0000 0.0000 -75.2687 7.6653 34.1780 42.6945 -49.5877 -20.4679 -0.0000 0.0000 -1.4636 36.1194 24.0962 16.5902 -7.1250 0.0000 -0.0000 7.9020 58.7771 2.6719 0.0000 -0.0000 0.0000 52.6627 -10.3682 39.1308 -48.9451 52.5611 -25.3341 0.0000 -0.0000 -11.5605 -22.7199 -15.7031 6.4656 7.1250 -0.0000 -0.0000 4.7332 -46.8755 -0.2195
3.6991 21.9350 3.3759 -126.7860 -84.6461 149.7930 0.0000 0.0000 0.0000 -21.6655 -22.3066 -48.6282 6.4079 14.8123 46.5976 0.2624 -24.2737 -18.8608 0.5612 -4.7984 -13.3346 0.0000 0.0000 0.0000 29.9333 2.8611 -21.7777 -1.9270 -8.7123 24.8994 0.5712 -24.1202 12.8098 -2.9592 10.6288 -31.0379 -0.7129 1.5343 15.3352 -0.4101 1.8186 -6.8349 -0.5913 0.8477 -16.4944 -0.9384 0.0976 -17.6305 2.8719 -3.4097 44.2045 0.6314 -1.7715 20.6036 0.0000 -0.0000 0.0000 -75.1007 7.3323 33.9014 42.5807 -49.5267 -20.3813 -0.0000 0.0000 -1.3971 36.2764 24.0097 16.6274 -7.1250 0.0000 -0.0000 8.1026 58.7183 2.7288 0.0000 -0.0000 0.0000 52.7195 -10.9654 39.3740 -48.0406 52.1740 -24.6178 0.0000 -0.0000 -10.7820 -22.7016 -15.5054 6.3812 7.1250 -0.0000 -0.0000 4.7099 -46.6625 -0.1937
3.5647 22.0250 3.3920 -133.1780 -84.5293 155.8280 0.0000 0.0000 0.0000 -22.8418 -21.1344 -46.3905 5.8433 14.2748 44.3497 0.1523 -24.3636 -18.2054 0.4916 -4.4954 -12.4747 0.0000 0.0000 0.0000 29.2745 2.0939 -25.2080 -3.1020 -10.8583 31.8035 0.2227 -23.1937 14.7205 -3.2591 11.1031 -32.6284 -1.0808 1.5166 15.4817 -0.5872 1.6854 -6.7101 -0.5486 0.8141 -16.4410 -0.6702 0.2782 -17.3808 2.9053 -3.2888 44.2541 0.6239 -1.6898 20.5545 -0.0000 0.0000 0.0000 -74.8836 7.0456 33.6803 42.3902 -49.4239 -20.2364 -0.0000 0.0000 -1.2144 36.3916 23.9756 16.6726 -7.1250 0.0000 -0.0000 8.2464 58.7087 2.7758 -0.0000 0.0000 0.0000 52.8665 -11.6250 39.5001 -47.0533 51.7357 -23.8403 0.0000 -0.0000 -10.1041 -22.8969 -15.3283 6.3706 7.1250 -0.0000 -0.0000 4.4908 -46.5005 -0.1666
3.4287 22.0990 3.4050 -140.6910 -84.4555 162.8730 0.0000 0.0000 0.0000 -24.2216 -19.9997 -44.0976 5.3327 13.7489 42.2408 -0.0065 -24.5871 -17.3077 0.4019 -4.0702 -11.2742 0.0000 0.0000 0.0000 28.4266 1.6464 -28.5211 -4.5718 -12.8847 38.9385 0.0322 -22.5226 15.6373 -2.8450 10.4398 -30.4131 -1.5913 1.4937 15.6511 -0.8151 1.5030 -6.5806 -0.4687 0.7685 -16.3989 -0.4246 0.4607 -17.1165 2.9624 -3.1696 44.3180 0.6316 -1.6108 20.5133 0.0000 -0.0000 0.0000 -74.6215 6.8103 33.5247 42.1947 -49.3177 -20.0880 -0.0000 0.0000 -0.9813 36.4165 23.9665 16.6813 -7.1250 0.0000 -0.0000 8.2778 58.7046 2.7856 0.0000 -0.0000 0.0000 53.0978 -12.3655 39.4672 -46.0199 51.2585 -23.0316 0.0000 -0.0000 -9.5177 -23.2987 -15.1990 6.4415 7.1250 -0.0000 -0.0000 4.0880 -46.4170 -0.1432
3.2901 22.1604 3.4146 -148.5620 -84.3729 170.2070 0.0000 0.0000 0.0000 -25.6713 -18.9131 -41.8304 4.8859 13.2541 40.3272 0.0753 -24.0698 -17.4927 0.4897 -4.4871 -12.4514 0.0000 0.0000 0.0000 27.5007 1.4088 -31.7604 -6.2851 -14.6991 46.1157 -0.0489 -21.6994 15.6574 -2.1362 9.1442 -26.2475 -2.1658 1.4644 15.8298 -1.0660 1.2908 -6.4505 -0.3698 0.7134 -16.3622 -0.1930 0.6544 -16.8980 3.0227 -3.0349 44.4319 0.6462 -1.5284 20.5221 -0.0000 -0.0000 0.0000 -74.3223 6.6232 33.4389 42.0572 -49.2426 -19.9838 -0.0000 0.0000 -0.7627 36.3618 24.0036 16.6728 -7.1250 0.0000 -0.0000 8.2073 58.7333 2.7673 -0.0000 -0.0000 0.0000 53.3911 -13.1957 39.2586 -44.9739 50.7557 -22.2186 0.0000 -0.0000 -9.0481 -23.8246 -15.1121 6.5670 7.1250 -0.0000 -0.0000 3.5771 -46.3952 -0.1233
3.1486 22.2127 3.4210 -155.6760 -84.2574 176.7590 0.0000 0.0000 0.0000 -27.0244 -17.8863 -39.6797 4.5098 12.8095 38.6596 0.1481 -23.6229 -17.6784 0.5886 -4.9122 -13.6582 0.0000 0.0000 0.0000 26.6484 1.3157 -34.9472 -8.1543 -16.2316 53.1166 -0.0402 -20.4734 14.7369 -1.4326 7.5679 -21.4092 -2.6961 1.4258 15.9909 -1.3054 1.0758 -6.3226 -0.2804 0.6524 -16.3144 0.0297 0.8344 -16.7164 3.0546 -2.9002 44.5441 0.6480 -1.4497 20.5407 -0.0000 0.0000 0.0000 -74.0008 6.4729 33.4196 42.0098 -49.2166 -19.9480 -0.0000 0.0000 -0.6002 36.2534 24.0541 16.6415 -7.1250 0.0000 -0.0000 8.0698 58.7632 2.7264 -0.0000 0.0000 0.0000 53.7260 -14.1172 38.8818 -43.9393 50.2381 -21.4202 0.0000 -0.0000 -8.7422 -24.4097 -15.0027 6.7003 7.1250 -0.0000 -0.0000 3.0068 -46.3572 -0.1008
